<svg xmlns="http://www.w3.org/2000/svg" viewBox="0 0 800 1000" fill="none">
  <rect width="800" height="1000" fill="#1a1612"/>
  <rect x="0" y="0" width="800" height="1000" fill="url(#g1)"/>
  <defs>
    <linearGradient id="g1" x1="0" y1="0" x2="1" y2="1">
      <stop offset="0%" stop-color="#2a2118"/>
      <stop offset="100%" stop-color="#0e0c0a"/>
    </linearGradient>
    <linearGradient id="gold" x1="0" y1="0" x2="0" y2="1">
      <stop offset="0%" stop-color="#d4b896"/>
      <stop offset="100%" stop-color="#8a6d4a"/>
    </linearGradient>
  </defs>
  <ellipse cx="400" cy="860" rx="210" ry="28" fill="#000" opacity="0.45"/>
  <rect x="370" y="620" width="60" height="220" rx="8" fill="url(#gold)"/>
  <path d="M250 430c0-90 70-160 150-160s150 70 150 160v90H250v-90Z" fill="#3a2e24"/>
  <path d="M220 520h360c20 0 36 16 36 36v40H184v-40c0-20 16-36 36-36Z" fill="#c4a574"/>
  <path d="M200 596h400v40c0 40-40 72-88 72H288c-48 0-88-32-88-72v-40Z" fill="#241c16"/>
  <circle cx="248" cy="820" r="38" stroke="#c4a574" stroke-width="10" fill="#1a1612"/>
  <circle cx="552" cy="820" r="38" stroke="#c4a574" stroke-width="10" fill="#1a1612"/>
  <rect x="236" y="820" width="328" height="12" fill="#c4a574"/>
  <path d="M80 120h640" stroke="#c4a574" stroke-opacity="0.25"/>
  <text x="80" y="96" fill="#e8e0d4" font-family="Georgia, serif" font-size="28" letter-spacing="8">ATELIER</text>
</svg>
